# xmcd
#
# Track frame offsets: 
#        150
#        12642
#        27687
#        41812
#        54545
#        67965
#        81347
#        96502
#        109397
#        121915
#        134910
#        150612
#        166175
#        182182
#        197805
#        212590
#        228467
#        243055
#        259400
#        275087
#        290952
#        305077
#        319335
#        332970
#
# Disc length: 4629 seconds
#
# Revision: 0
# Processed by: cddbd v1.5.2PL0 Copyright (c) Steve Scherf et al.
# Submitted via: ExactAudioCopyFreeDBPlugin 1.0
#
DISCID=85121318
DTITLE=Silver Leaf Quartette of Norfolk - Complete Recorded Works (192
DTITLE=8-1931)
DYEAR=1995
DGENRE=Gospel
TTITLE0=I Can Tell the World
TTITLE1=I Am a Pilgrim
TTITLE2=I'm Going Through with Jesus
TTITLE3=When Jesus Comes
TTITLE4=Our Father
TTITLE5=My Soul Is a Witness for My Lord
TTITLE6=Sleep On, Mother
TTITLE7=Hope I'll Join the Band
TTITLE8=You Better Let That Liar Alone
TTITLE9=That's What's the Matter with the Church To Day
TTITLE10=Jesus Is Mine
TTITLE11=The Beautiful Lamp
TTITLE12=Savior Let Me Press Thy Hand
TTITLE13=The Ship Is at the Landing
TTITLE14=One Happy Time
TTITLE15=There Will Be Glory
TTITLE16=Lover of the Lord
TTITLE17=Will the Circle Be Unbroken
TTITLE18=Lord I'm Troubled
TTITLE19=Sittin' in the Circle with the Saints
TTITLE20=The Lord Is Walking with Me
TTITLE21=God Has Promised to Provide for Me
TTITLE22=Jesus Is All and All
TTITLE23=Daniel Saw de Stone
EXTD=
EXTT0=
EXTT1=
EXTT2=
EXTT3=
EXTT4=
EXTT5=
EXTT6=
EXTT7=
EXTT8=
EXTT9=
EXTT10=
EXTT11=
EXTT12=
EXTT13=
EXTT14=
EXTT15=
EXTT16=
EXTT17=
EXTT18=
EXTT19=
EXTT20=
EXTT21=
EXTT22=
EXTT23=
PLAYORDER=
